<?xml version="1.0" encoding="utf-8"?>
<!-- Generator: Adobe Illustrator 24.1.3, SVG Export Plug-In . SVG Version: 6.00 Build 0)  -->
<svg version="1.1" id="Layer_1" xmlns="http://www.w3.org/2000/svg" xmlns:xlink="http://www.w3.org/1999/xlink" x="0px" y="0px"
	 viewBox="0 0 24 24" style="enable-background:new 0 0 24 24;" xml:space="preserve">
<g transform="translate(-4.209 -4.408)">
	<path d="M26.6,14.8c0.8,0,1.5,0.7,1.5,1.5s-0.7,1.5-1.5,1.5h-17l7.4,7.5c0.6,0.5,0.7,1.5,0.2,2.2c-0.5,0.6-1.5,0.7-2.2,0.2
		c-0.1-0.1-0.1-0.1-0.2-0.2l-10-10.1c-0.6-0.6-0.6-1.6,0-2.2L14.8,5.2c0.6-0.6,1.6-0.6,2.2,0c0.6,0.6,0.6,1.6,0,2.2l-7.4,7.4
		L26.6,14.8z"/>
</g>
</svg>
