<?xml version="1.0" encoding="utf-8"?>
<!-- Generator: Adobe Illustrator 24.1.3, SVG Export Plug-In . SVG Version: 6.00 Build 0)  -->
<svg version="1.1" id="Layer_1" xmlns="http://www.w3.org/2000/svg" xmlns:xlink="http://www.w3.org/1999/xlink" x="0px" y="0px"
	 viewBox="0 0 24 24" style="enable-background:new 0 0 24 24;" xml:space="preserve">
<path d="M13.2,10.9h-2.4c-1.4,0-2.5-1.1-2.5-2.4s1-2.5,2.4-2.6h0.1h4.8c0.6,0,1.1-0.5,1.1-1.1s-0.5-1.1-1.1-1.1l0,0h-2.5V1.2
	c0-0.6-0.5-1.1-1.1-1.1s-1.1,0.5-1.1,1.1v2.5h-0.1c-2.6,0-4.7,2.1-4.7,4.7s2.1,4.7,4.7,4.7h2.4c1.4,0,2.5,1.2,2.4,2.5
	c0,1.3-1.1,2.4-2.4,2.4H8.4c-0.6,0-1.1,0.5-1.1,1.1s0.5,1.1,1.1,1.1l0,0h2.5v2.5c0,0.6,0.5,1.1,1.1,1.1s1.1-0.5,1.1-1.1v-2.5h0.1
	c2.6,0,4.7-2.1,4.7-4.7C17.9,13,15.8,10.9,13.2,10.9z"/>
</svg>
