<?xml version="1.0" encoding="utf-8"?>
<!-- Generator: Adobe Illustrator 24.1.3, SVG Export Plug-In . SVG Version: 6.00 Build 0)  -->
<svg version="1.1" id="Layer_1" xmlns="http://www.w3.org/2000/svg" xmlns:xlink="http://www.w3.org/1999/xlink" x="0px" y="0px"
	 viewBox="0 0 24 24" style="enable-background:new 0 0 24 24;" xml:space="preserve">
<g transform="translate(0 0)">
	<path d="M10.5,1.5v16.7l-7.3-7.3c-0.6-0.6-1.5-0.6-2.1,0c-0.6,0.6-0.6,1.5,0,2.1c0,0,0,0,0,0l9.9,9.9c0.6,0.6,1.5,0.6,2.1,0
		c0,0,0,0,0,0l9.9-9.9c0.3-0.3,0.4-0.7,0.4-1.1c0-0.4-0.2-0.8-0.4-1.1c-0.6-0.6-1.5-0.6-2.1,0c0,0,0,0,0,0l-7.3,7.3V1.5
		C13.5,0.7,12.8,0,12,0C11.2,0,10.5,0.7,10.5,1.5z"/>
</g>
</svg>
