<?xml version="1.0" encoding="utf-8"?>
<!-- Generator: Adobe Illustrator 24.1.3, SVG Export Plug-In . SVG Version: 6.00 Build 0)  -->
<svg version="1.1" id="Layer_1" xmlns="http://www.w3.org/2000/svg" xmlns:xlink="http://www.w3.org/1999/xlink" x="0px" y="0px"
	 viewBox="0 0 24 24" style="enable-background:new 0 0 24 24;" xml:space="preserve">
<style type="text/css">
	.st0{fill:#FFD15D;}
	.st1{fill:#FFFFFF;}
	.st2{fill:#354B5E;}
	.st3{fill:#425B6C;}
</style>
<g>
	<path class="st0" d="M14.6,18c0.3-1,0.9-1.8,1.6-2.5c1.5-1.2,2.3-3.1,2.3-5C18.6,7,15.6,4,12,4c-3.6,0-6.6,2.9-6.6,6.5
		c0,1.9,0.8,3.8,2.3,5c0.8,0.6,1.4,1.5,1.7,2.5L14.6,18z"/>
	<path class="st1" d="M11.3,18.1h0.4l-1.9-7.1H10c0.3,0,0.5-0.1,0.7-0.3c0.1-0.1,0.2-0.1,0.3-0.1c0.1,0,0.2,0,0.3,0.1
		c0.3,0.3,0.8,0.4,1.1,0.1c0,0,0.1-0.1,0.1-0.1c0.1-0.1,0.2-0.1,0.3-0.1c0.1,0,0.2,0.1,0.3,0.1c0.2,0.2,0.4,0.3,0.7,0.3h0.1
		l-1.9,7.1h0.4l1.9-7.4c0-0.1,0-0.2-0.1-0.2c-0.1,0-0.2,0-0.2,0c-0.1,0.1-0.2,0.1-0.3,0.1c-0.1,0-0.3-0.1-0.4-0.1
		c-0.3-0.3-0.8-0.4-1.1-0.1c0,0-0.1,0.1-0.1,0.1c-0.2,0.2-0.5,0.2-0.6,0c0,0,0,0,0,0c-0.2-0.2-0.4-0.3-0.6-0.3l0,0
		c-0.2,0-0.5,0.1-0.6,0.3c-0.1,0.1-0.2,0.1-0.4,0.1c-0.1,0-0.2-0.1-0.3-0.1c-0.1-0.1-0.2-0.1-0.2-0.1c-0.1,0-0.1,0.1-0.1,0.2
		c0,0,0,0,0,0L11.3,18.1z"/>
	<g transform="translate(13.936 25.283)">
		<path class="st2" d="M-3.4-2.9c0.2,0.6,0.8,1,1.5,1c0.6,0,1.2-0.4,1.5-1H-3.4z"/>
		<path class="st2" d="M-0.2-2.8h-3.5c-0.5,0-0.9-0.4-0.9-0.8c0,0,0,0,0,0v-3.6h5.2v3.6C0.7-3.2,0.3-2.8-0.2-2.8
			C-0.2-2.8-0.2-2.8-0.2-2.8z"/>
	</g>
	<g transform="translate(13.266 26.258)">
		<path class="st3" d="M1.3-6.5h-5.1c-0.3,0-0.5-0.2-0.5-0.5l0,0c0-0.3,0.2-0.5,0.5-0.5h5.1c0.3,0,0.5,0.2,0.5,0.5l0,0
			C1.8-6.7,1.6-6.5,1.3-6.5z"/>
		<path class="st3" d="M1.3-4.8h-5.1c-0.3,0-0.5-0.2-0.5-0.5l0,0c0-0.3,0.2-0.5,0.5-0.5h5.1c0.3,0,0.5,0.2,0.5,0.5l0,0
			C1.8-5,1.6-4.8,1.3-4.8z"/>
	</g>
	<g transform="translate(4.497 2.996)">
		<path class="st0" d="M7.5-2.4C7.2-2.4,7-2.2,7-1.9v1.6C7,0,7.2,0.2,7.5,0.2C7.8,0.2,8,0,8-0.2c0,0,0,0,0-0.1v-1.6
			C8-2.2,7.8-2.4,7.5-2.4z"/>
		<path class="st0" d="M1.1,0.5C1,0.3,0.7,0.3,0.5,0.5c0,0,0,0,0,0C0.3,0.7,0.3,1,0.5,1.2c0,0,0,0,0,0l1.1,1.1
			c0.2,0.2,0.5,0.2,0.7,0c0.2-0.2,0.2-0.5,0-0.7L1.1,0.5z"/>
		<path class="st0" d="M-0.3,7.1h-1.6c-0.3,0-0.5,0.2-0.5,0.5l0,0C-2.4,7.8-2.2,8-1.9,8h1.6c0.3,0,0.5-0.2,0.5-0.5l0,0
			C0.1,7.3-0.1,7.1-0.3,7.1z"/>
		<path class="st0" d="M1.6,12.8l-1.1,1.1c-0.2,0.2-0.2,0.5,0,0.6c0,0,0,0,0,0c0.2,0.2,0.5,0.2,0.6,0c0,0,0,0,0,0l1.1-1.1
			c0.2-0.2,0.2-0.5,0-0.6c0,0,0,0,0,0C2.1,12.6,1.8,12.6,1.6,12.8C1.6,12.7,1.6,12.7,1.6,12.8z"/>
		<path class="st0" d="M13.4,12.8c-0.2-0.2-0.5-0.2-0.6,0c0,0,0,0,0,0c-0.2,0.2-0.2,0.5,0,0.6c0,0,0,0,0,0l1.1,1.1
			c0.2,0.2,0.5,0.2,0.7,0s0.2-0.5,0-0.7L13.4,12.8z"/>
		<path class="st0" d="M16.9,7.1h-1.6c-0.3,0-0.5,0.2-0.5,0.5l0,0c0,0.3,0.2,0.5,0.5,0.5h1.6c0.3,0,0.5-0.2,0.5-0.5l0,0
			C17.4,7.3,17.2,7.1,16.9,7.1z"/>
		<path class="st0" d="M13.9,0.5l-1.1,1.1c-0.2,0.2-0.2,0.5,0,0.6c0,0,0,0,0,0c0.2,0.2,0.5,0.2,0.6,0c0,0,0,0,0,0l1.1-1.1
			c0.2-0.2,0.2-0.5,0-0.6c0,0,0,0,0,0C14.4,0.3,14.1,0.3,13.9,0.5C13.9,0.5,13.9,0.5,13.9,0.5z"/>
	</g>
</g>
</svg>
