<?xml version="1.0" encoding="utf-8"?>
<!-- Generator: Adobe Illustrator 24.1.3, SVG Export Plug-In . SVG Version: 6.00 Build 0)  -->
<svg version="1.1" id="Layer_1" xmlns="http://www.w3.org/2000/svg" xmlns:xlink="http://www.w3.org/1999/xlink" x="0px" y="0px"
	 viewBox="0 0 24 24" style="enable-background:new 0 0 24 24;" xml:space="preserve">
<style type="text/css">
	.st0{fill:#67B4E4;}
	.st1{fill:#5393CE;}
</style>
<g>
	<path class="st0" d="M23.2,6.1c-0.4,0.6-1.2,0.8-1.8,0.4C18.5,4.8,15.3,4,12,4h0C8.7,4,5.5,4.8,2.6,6.5C2,6.9,1.2,6.7,0.8,6.1
		S0.6,4.6,1.2,4.2c0,0,0,0,0,0c3.2-1.9,6.9-2.9,10.7-2.9H12c3.8,0,7.5,1,10.8,2.9C23.4,4.6,23.6,5.4,23.2,6.1
		C23.2,6.1,23.2,6.1,23.2,6.1z"/>
	<path class="st0" d="M20.2,10.6c-0.4,0.6-1.2,0.8-1.8,0.4c-1.9-1.1-4.1-1.6-6.4-1.6c-2.2,0-4.4,0.5-6.4,1.6
		c-0.6,0.4-1.4,0.2-1.8-0.4C3.4,9.9,3.6,9.1,4.2,8.7c2.4-1.4,5.1-2.1,7.8-2c2.7,0,5.4,0.7,7.8,2C20.4,9.1,20.6,10,20.2,10.6
		C20.2,10.6,20.2,10.6,20.2,10.6z"/>
	<path class="st0" d="M17.5,15.1c-0.4,0.6-1.2,0.8-1.8,0.4c0,0,0,0,0,0c-1.2-0.5-2.4-0.8-3.7-0.8c-1.3,0-2.5,0.3-3.7,0.8
		c-0.6,0.4-1.5,0.2-1.8-0.5c-0.4-0.6-0.2-1.4,0.4-1.8C8.4,12.4,10.2,12,12,12c1.8,0,3.6,0.4,5.1,1.2C17.8,13.6,17.9,14.5,17.5,15.1z
		"/>
	<path class="st0" d="M12,22.7c-1.5,0-2.7-1.2-2.7-2.7c0-1.5,1.2-2.7,2.7-2.7s2.7,1.2,2.7,2.7c0,0,0,0,0,0
		C14.7,21.5,13.5,22.7,12,22.7z"/>
	<g transform="translate(13.477)">
		<path class="st1" d="M1.2,20c0-1.5-1.2-2.7-2.7-2.7v5.4C0,22.7,1.2,21.5,1.2,20z"/>
		<path class="st1" d="M4.1,15.1c-0.4,0.6-1.2,0.8-1.8,0.4c0,0,0,0,0,0c-1.2-0.5-2.4-0.8-3.7-0.8V12c1.8,0,3.6,0.4,5.1,1.2
			C4.3,13.6,4.5,14.5,4.1,15.1z"/>
		<path class="st1" d="M6.7,10.6c-0.4,0.6-1.2,0.8-1.8,0.4C2.9,9.9,0.7,9.3-1.5,9.4V6.7c2.7,0,5.4,0.7,7.8,2C7,9.1,7.1,10,6.7,10.6
			C6.7,10.6,6.7,10.6,6.7,10.6z"/>
		<path class="st1" d="M9.7,6.1C9.3,6.7,8.5,6.8,7.9,6.5C5,4.8,1.8,4-1.5,4V1.3c3.8,0,7.5,1,10.8,2.9C9.9,4.6,10.1,5.4,9.7,6.1
			C9.7,6.1,9.7,6.1,9.7,6.1z"/>
	</g>
</g>
</svg>
