<?xml version="1.0" encoding="utf-8"?>
<!-- Generator: Adobe Illustrator 24.1.3, SVG Export Plug-In . SVG Version: 6.00 Build 0)  -->
<svg version="1.1" id="Layer_1" xmlns="http://www.w3.org/2000/svg" xmlns:xlink="http://www.w3.org/1999/xlink" x="0px" y="0px"
	 viewBox="0 0 24 24" style="enable-background:new 0 0 24 24;" xml:space="preserve">
<style type="text/css">
	.st0{fill:#020202;}
</style>
<path class="st0" d="M10.7,22.7v-7.5H5.9c-0.5,0-0.9-0.4-0.9-0.9c0-0.1,0-0.3,0.1-0.4l6.7-13C12,0.4,12.5,0.3,13,0.5
	c0.3,0.2,0.5,0.5,0.5,0.8v7.6h4.6c0.5,0,0.9,0.4,0.9,0.9c0,0.1,0,0.3-0.1,0.4l-6.5,12.9c-0.2,0.5-0.8,0.6-1.2,0.4
	C10.9,23.4,10.7,23.1,10.7,22.7L10.7,22.7z"/>
</svg>
