<?xml version="1.0" encoding="utf-8"?>
<!-- Generator: Adobe Illustrator 24.1.3, SVG Export Plug-In . SVG Version: 6.00 Build 0)  -->
<svg version="1.1" id="Layer_1" xmlns="http://www.w3.org/2000/svg" xmlns:xlink="http://www.w3.org/1999/xlink" x="0px" y="0px"
	 viewBox="0 0 24 24" style="enable-background:new 0 0 24 24;" xml:space="preserve">
<style type="text/css">
	.st0{fill:#4FBF9F;}
	.st1{fill:#31988C;}
</style>
<rect x="1.1" y="5.7" class="st0" width="21.9" height="12.6"/>
<g transform="translate(1.088 1.053)">
	<path class="st1" d="M0.8,16.5v-11h20.3v11H0.8z"/>
	<ellipse class="st1" cx="10.9" cy="10.9" rx="3.2" ry="3.9"/>
	<ellipse class="st1" cx="17.9" cy="10.9" rx="0.8" ry="0.8"/>
	<ellipse class="st1" cx="3.9" cy="10.9" rx="0.8" ry="0.8"/>
</g>
<path class="st0" d="M11.9,14.7v-0.5c-0.6-0.1-1.1-0.3-1.5-0.7l0.4-0.6c0.3,0.3,0.6,0.5,1,0.6v-1.2c-0.4-0.1-0.7-0.2-1-0.5
	c-0.2-0.2-0.3-0.5-0.3-0.8c0-0.3,0.1-0.7,0.4-0.9c0.3-0.2,0.6-0.4,1-0.4V9.3h0.4v0.3c0.5,0,0.9,0.2,1.3,0.5l-0.4,0.6
	c-0.3-0.2-0.5-0.3-0.9-0.4v1.2h0c0.4,0.1,0.7,0.2,1,0.5c0.2,0.2,0.3,0.5,0.3,0.9c0,0.3-0.1,0.7-0.4,0.9c-0.3,0.2-0.6,0.4-1,0.4v0.5
	L11.9,14.7z"/>
</svg>
