<?xml version="1.0" encoding="utf-8"?>
<!-- Generator: Adobe Illustrator 24.1.3, SVG Export Plug-In . SVG Version: 6.00 Build 0)  -->
<svg version="1.1" id="Layer_1" xmlns="http://www.w3.org/2000/svg" xmlns:xlink="http://www.w3.org/1999/xlink" x="0px" y="0px"
	 viewBox="0 0 24 24" style="enable-background:new 0 0 24 24;" xml:space="preserve">
<path d="M2.3,13.4h16l-7,7c-0.6,0.6-0.6,1.5,0,2c0.6,0.6,1.5,0.6,2,0c0,0,0,0,0,0l9.4-9.4c0.6-0.6,0.6-1.5,0-2c0,0,0,0,0,0l-9.4-9.4
	c-0.6-0.6-1.5-0.6-2,0c-0.6,0.6-0.6,1.5,0,2l7,7h-16c-0.8,0-1.4,0.6-1.4,1.4C0.9,12.8,1.5,13.4,2.3,13.4L2.3,13.4z"/>
</svg>
