<?xml version="1.0" encoding="utf-8"?>
<!-- Generator: Adobe Illustrator 24.1.3, SVG Export Plug-In . SVG Version: 6.00 Build 0)  -->
<svg version="1.1" id="Layer_1" xmlns="http://www.w3.org/2000/svg" xmlns:xlink="http://www.w3.org/1999/xlink" x="0px" y="0px"
	 viewBox="0 0 24 24" style="enable-background:new 0 0 24 24;" xml:space="preserve">
<path d="M17.9,21.5c-0.4,0-0.7-0.3-0.7-0.7c0-0.4,0.3-0.7,0.7-0.7c0,0,0,0,0,0H20v-2.1c0-0.4,0.3-0.7,0.7-0.7c0.4,0,0.7,0.3,0.7,0.7
	c0,0,0,0,0,0v2.8c0,0.4-0.3,0.7-0.7,0.7c0,0,0,0,0,0L17.9,21.5z M3.2,21.5c-0.4,0-0.7-0.3-0.7-0.7c0,0,0,0,0,0v-2.8
	c0-0.4,0.3-0.7,0.7-0.7S4,17.5,4,17.9c0,0,0,0,0,0V20h2.1c0.4,0,0.7,0.3,0.7,0.7c0,0.4-0.3,0.7-0.7,0.7c0,0,0,0,0,0L3.2,21.5z
	 M6.2,19c-0.4,0-0.7-0.3-0.7-0.7v-4.5c0-0.4,0.3-0.7,0.7-0.7h4.5c0.4,0,0.7,0.3,0.7,0.7v4.5c0,0.4-0.3,0.7-0.7,0.7c0,0,0,0,0,0H6.2z
	 M14.7,18c-0.4,0-0.7-0.3-0.7-0.7c0,0,0,0,0,0v-2.5c0-0.4,0.3-0.7,0.7-0.7h2.5c0.4,0,0.7,0.3,0.7,0.7c0,0,0,0,0,0v2.5
	c0,0.4-0.3,0.7-0.7,0.7c0,0,0,0,0,0L14.7,18z M13.8,11.3c-0.4,0-0.7-0.3-0.7-0.7V6.2c0-0.4,0.3-0.7,0.7-0.7h4.5
	c0.4,0,0.7,0.3,0.7,0.7v4.5c0,0.4-0.3,0.7-0.7,0.7c0,0,0,0,0,0L13.8,11.3z M6.2,11.3c-0.4,0-0.7-0.3-0.7-0.7c0,0,0,0,0,0V6.2
	c0-0.4,0.3-0.7,0.7-0.7h4.5c0.4,0,0.7,0.3,0.7,0.7c0,0,0,0,0,0v4.5c0,0.4-0.3,0.7-0.7,0.7c0,0,0,0,0,0L6.2,11.3z M20,6.1V4h-2.1
	c-0.4,0-0.7-0.3-0.7-0.7s0.3-0.7,0.7-0.7c0,0,0,0,0,0h2.8c0.4,0,0.7,0.3,0.7,0.7c0,0,0,0,0,0v2.8c0,0.4-0.3,0.7-0.7,0.7
	C20.3,6.8,20,6.5,20,6.1C20,6.1,20,6.1,20,6.1L20,6.1z M2.5,6.1V3.2c0-0.4,0.3-0.7,0.7-0.7c0,0,0,0,0,0h2.8c0.4,0,0.7,0.3,0.7,0.7
	C6.8,3.7,6.5,4,6.1,4c0,0,0,0,0,0H4v2.1c0,0.4-0.3,0.7-0.7,0.7C2.8,6.8,2.5,6.5,2.5,6.1C2.5,6.1,2.5,6.1,2.5,6.1z"/>
</svg>
