<?xml version="1.0" encoding="utf-8"?>
<!-- Generator: Adobe Illustrator 24.1.3, SVG Export Plug-In . SVG Version: 6.00 Build 0)  -->
<svg version="1.1" id="Layer_1" xmlns="http://www.w3.org/2000/svg" xmlns:xlink="http://www.w3.org/1999/xlink" x="0px" y="0px"
	 viewBox="0 0 24 24" style="enable-background:new 0 0 24 24;" xml:space="preserve">
<path d="M10.5,22.2V5.4l-7.3,7.3c-0.6,0.6-1.5,0.6-2.1,0c-0.6-0.6-0.6-1.5,0-2.1c0,0,0,0,0,0l9.9-9.9c0.6-0.6,1.5-0.6,2.1,0
	c0,0,0,0,0,0l9.9,9.9c0.6,0.6,0.6,1.5,0,2.1c-0.6,0.6-1.5,0.6-2.1,0l-7.3-7.3v16.7c0,0.8-0.7,1.5-1.5,1.5S10.5,23,10.5,22.2
	L10.5,22.2z"/>
</svg>
